<?xml version="1.0" encoding="UTF-8"?>
<svg xmlns="http://www.w3.org/2000/svg" xmlns:xlink="http://www.w3.org/1999/xlink" width="1510.27pt" height="627.87pt" viewBox="0 0 1510.27 627.87" version="1.1">
<defs>
<clipPath id="clip1">
  <path d="M 1472 325 L 1510.269531 325 L 1510.269531 363 L 1472 363 Z M 1472 325 "/>
</clipPath>
<clipPath id="clip2">
  <path d="M 0 389 L 554 389 L 554 627.871094 L 0 627.871094 Z M 0 389 "/>
</clipPath>
</defs>
<g id="surface1">
<path style=" stroke:none;fill-rule:nonzero;fill:rgb(0%,0%,2.69928%);fill-opacity:1;" d="M 2.402344 368.472656 L 89.191406 368.472656 L 89.191406 135.324219 L 2.402344 135.324219 Z M 2.402344 368.472656 "/>
<path style=" stroke:none;fill-rule:nonzero;fill:rgb(0%,0%,2.69928%);fill-opacity:1;" d="M 271.136719 135.324219 C 310.601563 135.324219 311.105469 188.5 311.105469 188.5 C 311.105469 234.15625 284.164063 245.675781 284.164063 245.675781 C 307.832031 255.808594 310.820313 277.515625 310.820313 277.515625 L 310.820313 368.472656 L 219.511719 368.472656 L 219.511719 280.488281 C 219.511719 272.851563 209.683594 273.183594 209.683594 273.183594 C 200.796875 273.183594 199.574219 280.011719 199.574219 280.011719 L 199.574219 368.472656 L 107 368.472656 L 107 135.324219 Z M 199.816406 192.113281 L 199.816406 220.039063 L 209.683594 220.039063 C 209.683594 220.039063 218.125 218.996094 218.125 204.828125 C 218.125 204.828125 217.140625 192.429688 208.65625 192.429688 "/>
<path style=" stroke:none;fill-rule:nonzero;fill:rgb(0%,0%,2.69928%);fill-opacity:1;" d="M 525.164063 189.480469 L 525.164063 312.953125 C 525.164063 364.105469 468.839844 368.472656 468.839844 368.472656 L 381.105469 368.472656 C 324.34375 368.472656 321.253906 314.300781 321.253906 314.300781 L 321.253906 193.753906 C 321.253906 137.902344 376.289063 135.324219 376.289063 135.324219 L 465.847656 135.324219 C 522.273438 135.324219 525.164063 189.480469 525.164063 189.480469 M 422.703125 194.058594 C 422.703125 194.058594 413.480469 195.375 413.480469 203.292969 L 413.480469 301.105469 C 413.480469 301.105469 416.191406 310.25 423.40625 310.25 C 423.40625 310.25 432.5625 310.25 432.5625 299.71875 L 432.5625 203.554688 C 432.5625 203.554688 431.945313 194.058594 422.703125 194.058594 "/>
<path style=" stroke:none;fill-rule:nonzero;fill:rgb(0%,0%,2.69928%);fill-opacity:1;" d="M 625.363281 135.324219 L 538.464844 135.324219 L 538.464844 368.472656 L 620.777344 368.472656 L 620.777344 283.351563 L 655.230469 368.472656 L 738.367188 368.472656 L 738.367188 135.324219 L 654.242188 135.324219 L 654.242188 201.949219 "/>
<path style=" stroke:none;fill-rule:nonzero;fill:rgb(0%,0%,2.69928%);fill-opacity:1;" d="M 1349.46875 128.574219 L 1262.441406 128.574219 L 1262.441406 361.726563 L 1344.839844 361.726563 L 1344.839844 276.605469 L 1379.339844 361.726563 L 1462.359375 361.726563 L 1462.359375 128.574219 L 1378.378906 128.574219 L 1378.378906 195.203125 "/>
<path style=" stroke:none;fill-rule:nonzero;fill:rgb(0%,0%,2.69928%);fill-opacity:1;" d="M 1250.011719 367.777344 L 1159.191406 367.777344 L 1152.230469 316.144531 L 1128.949219 316.144531 L 1121.730469 368.472656 L 1030.460938 368.472656 L 1069.578125 135.324219 L 1209.121094 135.324219 Z M 1139.761719 210.15625 L 1133.210938 263.722656 L 1145.628906 263.722656 "/>
<path style=" stroke:none;fill-rule:nonzero;fill:rgb(83.499146%,5.499268%,10.198975%);fill-opacity:1;" d="M 1021.339844 135.324219 L 748.519531 135.324219 L 748.519531 368.472656 L 832.769531 368.472656 L 832.769531 280.65625 L 860.101563 368.472656 L 913.328125 368.472656 L 939.824219 278.808594 L 939.824219 368.472656 L 1021.640625 368.472656 "/>
<path style=" stroke:none;fill-rule:nonzero;fill:rgb(83.499146%,5.499268%,10.198975%);fill-opacity:1;" d="M 948.683594 64.027344 C 948.683594 99.394531 920.027344 128.132813 884.695313 128.132813 C 849.253906 128.132813 820.609375 99.394531 820.609375 64.027344 C 820.609375 28.648438 849.253906 0.00390625 884.695313 0.00390625 C 920.027344 0.00390625 948.683594 28.648438 948.683594 64.027344 "/>
<g clip-path="url(#clip1)" clip-rule="nonzero">
<path style=" stroke:none;fill-rule:nonzero;fill:rgb(0%,0%,2.69928%);fill-opacity:1;" d="M 1491.46875 325.347656 C 1481.089844 325.355469 1472.699219 333.765625 1472.71875 344.144531 C 1472.71875 354.511719 1481.128906 362.910156 1491.511719 362.90625 C 1501.878906 362.898438 1510.269531 354.484375 1510.269531 344.101563 C 1510.261719 333.730469 1501.859375 325.332031 1491.46875 325.347656 M 1491.519531 359.171875 C 1483.269531 359.171875 1476.558594 352.488281 1476.550781 344.230469 C 1476.550781 335.976563 1483.210938 329.277344 1491.488281 329.257813 C 1499.738281 329.257813 1506.449219 335.949219 1506.449219 344.203125 C 1506.449219 352.46875 1499.769531 359.160156 1491.519531 359.171875 "/>
</g>
<path style=" stroke:none;fill-rule:nonzero;fill:rgb(0%,0%,2.69928%);fill-opacity:1;" d="M 1500.050781 339.507813 C 1500.050781 335.699219 1496.53125 333.890625 1491.949219 333.898438 L 1484.648438 333.898438 L 1484.660156 353.191406 L 1488.488281 353.191406 L 1488.480469 345.195313 L 1491.519531 345.195313 L 1497.261719 353.191406 L 1501.609375 353.171875 L 1495.058594 344.585938 C 1498.320313 344.144531 1500.050781 341.933594 1500.050781 339.507813 M 1491.289063 342.519531 L 1488.480469 342.519531 L 1488.460938 336.5625 L 1491.25 336.5625 C 1493.949219 336.5625 1496.261719 336.867188 1496.261719 339.40625 C 1496.261719 341.933594 1494.359375 342.519531 1491.289063 342.519531 "/>
<g clip-path="url(#clip2)" clip-rule="nonzero">
<path style=" stroke:none;fill-rule:nonzero;fill:rgb(83.499146%,5.499268%,10.198975%);fill-opacity:1;" d="M 522.046875 499.945313 L 522.046875 497.238281 C 524.886719 496.164063 547.585938 486.65625 547.585938 457 L 547.585938 444.585938 C 547.585938 444.585938 549.785156 392.132813 480.78125 390.261719 C 480.78125 390.261719 402.5625 384.523438 402.5625 465.808594 L 456.1875 465.308594 C 456.1875 465.308594 454.984375 442.785156 475.074219 443.917969 C 475.074219 443.917969 488.519531 444.71875 489.054688 459.136719 C 489.054688 459.136719 491.125 480.625 470.101563 482.09375 L 469.933594 490.507813 L 469.933594 490.515625 L 469.703125 502.25 L 469.71875 502.25 L 469.300781 525.070313 C 496.53125 529.34375 494.128906 553.101563 494.128906 553.101563 C 493.535156 569.089844 478.621094 569.980469 478.621094 569.980469 C 456.339844 571.238281 454.617188 547.496094 454.617188 547.496094 L 395.140625 546.941406 C 396.421875 633.988281 479.5625 627.773438 479.5625 627.773438 C 553.65625 621.976563 553.65625 567.519531 553.65625 567.519531 L 553.65625 553.75 C 553.664063 512.792969 522.046875 499.945313 522.046875 499.945313 M 350.976563 538.886719 C 331.847656 538.886719 316.339844 558.203125 316.339844 582.035156 C 316.339844 605.863281 331.847656 625.179688 350.976563 625.179688 C 370.105469 625.179688 385.613281 605.863281 385.613281 582.035156 C 385.613281 558.203125 370.105469 538.886719 350.976563 538.886719 M 231.179688 556.972656 C 217.910156 556.972656 207.15625 535.222656 207.15625 508.386719 C 207.15625 481.554688 217.910156 459.804688 231.179688 459.804688 C 244.449219 459.804688 255.203125 481.554688 255.203125 508.386719 C 255.203125 535.222656 244.449219 556.972656 231.179688 556.972656 M 231.179688 389.058594 C 184.148438 389.058594 146.023438 442.484375 146.023438 508.386719 C 146.023438 574.289063 184.148438 627.714844 231.179688 627.714844 C 278.210938 627.714844 316.339844 574.289063 316.339844 508.386719 C 316.339844 442.484375 278.210938 389.058594 231.179688 389.058594 M 2.402344 398.003906 L 0 457.265625 L 73.144531 455.664063 L 5.875 622.777344 L 71.007813 622.777344 L 151.09375 398.003906 "/>
</g>
</g>
</svg>
